<?xml version="1.0" standalone="no"?><!DOCTYPE svg PUBLIC "-//W3C//DTD SVG 1.1//EN" "http://www.w3.org/Graphics/SVG/1.1/DTD/svg11.dtd"><svg t="1640451699253" class="icon" viewBox="0 0 1024 1024" version="1.1" xmlns="http://www.w3.org/2000/svg" p-id="5899" xmlns:xlink="http://www.w3.org/1999/xlink" width="200" height="200"><defs><style type="text/css"></style></defs><path d="M75.656 20.75C66 14 52.688 16.376 45.968 26.062c-6.75 9.656-4.344 22.968 5.282 29.688l184.438 128.532 24.376-35-184.408-128.532z" fill="#434A54" p-id="5900"></path><path d="M912.5 884.438l57.25 127.062 38.906-17.532-152.532-338.376a21.816 21.816 0 0 0-10.968-10.594l-138.124-58.282-16.594 39.312 110 46.406-94.5 134.468-15.844-2.624-6.968 42.094 229.374 38.066z m-21.094-46.75l-138.782-23.032 78.25-111.282 60.532 134.314zM340.938 846.376l-7-42.094-15.812 2.624-94.562-134.468 110-46.406-16.562-39.312-138.126 58.28a21.692 21.692 0 0 0-10.968 10.594L15.376 993.968l38.906 17.532 57.282-127.062 229.374-38.062z m-147.75-143l78.218 111.282-138.782 23.032 60.564-134.314z" fill="#656D78" p-id="5901"></path><path d="M298.688 597.344h426.656v256H298.688z" fill="#CCD1D9" p-id="5902"></path><path d="M298.688 640L128 298.438 320 0h384l192 298.438L725.344 640z" fill="#E6E9ED" p-id="5903"></path><path d="M725.344 320c0 117.844-95.532 213.344-213.344 213.344S298.688 437.844 298.688 320c0-117.812 95.5-213.312 213.312-213.312S725.344 202.188 725.344 320z" fill="#AAB2BD" p-id="5904"></path><path d="M725.344 320c0 117.844-95.532 213.344-213.344 213.344S298.688 437.844 298.688 320c0-117.812 95.5-213.312 213.312-213.312S725.344 202.188 725.344 320z" fill="#AAB2BD" p-id="5905"></path><path d="M298.688 320c0 38.876 10.376 75.282 28.562 106.688h103v-128h-130.5c-0.688 7-1.062 14.124-1.062 21.312zM579.124 298.688h110.624v42.656h-110.624z" fill="#CCD1D9" p-id="5906"></path><path d="M426.688 341.344h170.656V384h-170.656z" p-id="5907"></path><path d="M512 661.344c-11.75 0-21.312 9.562-21.312 21.344v333.188h42.656V682.688c0-11.782-9.532-21.344-21.344-21.344z" fill="#656D78" p-id="5908"></path><path d="M64 981.344H21.344C9.562 981.344 0 990.906 0 1002.688S9.562 1024 21.344 1024H64c11.812 0 21.344-9.532 21.344-21.312S75.812 981.344 64 981.344zM533.344 981.218h-42.656c-11.782 0-21.344 9.562-21.344 21.344s9.562 21.312 21.344 21.312h42.656c11.782 0 21.344-9.532 21.344-21.312s-9.564-21.344-21.344-21.344zM1002.688 981.344H960c-11.75 0-21.312 9.562-21.312 21.344S948.25 1024 960 1024h42.688c11.782 0 21.312-9.532 21.312-21.312s-9.532-21.344-21.312-21.344z" fill="#434A54" p-id="5909"></path><path d="M597.344 515.562c75.344-32.906 128-108.062 128-195.562 0-7.188-0.344-14.312-1.032-21.312h-126.968v216.874z" fill="#CCD1D9" p-id="5910"></path><path d="M426.688 515.562c26.124 11.438 55 17.782 85.312 17.782 30.376 0 59.218-6.344 85.344-17.782v-174.218h-170.656v174.218z" fill="#656D78" p-id="5911"></path><path d="M426.688 341.344h170.656v0.032l0.406-0.032-18.624-223.906A213.866 213.866 0 0 0 512 106.688c-23.25 0-45.688 3.718-66.624 10.624l-18.688 224.032z" fill="#F5F7FA" p-id="5912"></path></svg>