<?xml version="1.0" standalone="no"?><!DOCTYPE svg PUBLIC "-//W3C//DTD SVG 1.1//EN" "http://www.w3.org/Graphics/SVG/1.1/DTD/svg11.dtd"><svg t="1640451393377" class="icon" viewBox="0 0 1024 1024" version="1.1" xmlns="http://www.w3.org/2000/svg" p-id="2722" xmlns:xlink="http://www.w3.org/1999/xlink" width="200" height="200"><defs><style type="text/css"></style></defs><path d="M0 0m320 0l384 0q320 0 320 320l0 384q0 320-320 320l-384 0q-320 0-320-320l0-384q0-320 320-320Z" fill="#4D4D4D" p-id="2723"></path><path d="M227.6 568.48c12.56-28 24-54 36-80a24.56 24.56 0 0 1 23.28-17.44c25.6 0 32 6 32 32v79.2c0 8.48-2.08 12.96-11.2 11.52a20.88 20.88 0 0 0-2.24 0c-17.12 0-17.12 0-17.12-16.64 0-24 0-47.36-1.68-71.52l-25.44 56q-2.8 6.16-5.28 12.24c-5.44 12.8-12.96 22.32-28.72 21.92s-21.76-9.44-27.2-21.92c-8-19.04-16.96-37.92-25.6-56.8a35.04 35.04 0 0 0-7.52-11.36v72.96c0 4.8-1.44 13.28-3.44 13.68a81.52 81.52 0 0 1-24 0c-1.12 0-2.32-5.84-2.32-8.96V496.32c0-14.56 4.8-22.24 16.56-24 17.92-2.8 29.44-2.72 36.16 11.36 10.16 21.36 19.44 43.2 29.12 64.88 2.32 5.92 5.04 11.92 8.64 19.92zM906 451.92l-44 9.2c19.84 14.88 40 25.76 48 48.88-18.8-12.08-37.76-24-56-36.24a32 32 0 0 1-8-9.04c-6.08-9.2-4.96-12.8 5.76-16s20.72-4.24 32-6.56c-14.64-10.48-28.16-22-45.92-26a37.92 37.92 0 0 1-26.8-24 650.96 650.96 0 0 0-32-66.08 152 152 0 0 0-74.8-64 146.96 146.96 0 0 0-16-3.6 186.64 186.64 0 0 1-21.36-7.28c-8-3.28-15.2-7.6-23.04-10.88a9.84 9.84 0 0 0-8 0.96c-0.88 0.56 0 4.72 0.56 6.88a27.84 27.84 0 0 0 4.88 7.44 135.44 135.44 0 0 1 24 47.12C669.04 312 676.32 320 680 328.88a35.36 35.36 0 0 1 1.2 20.72 92.32 92.32 0 0 0 0.96 60 24 24 0 0 0 2.56 4.88 35.44 35.44 0 0 0 3.84 3.12c4.88-13.84 2.48-30.4 16-39.36l48 79.36c-17.76-14.08-35.52-26.96-45.36-49.04a50.96 50.96 0 0 1-3.2 12.16c-2.48 4.48-5.6 10.88-9.44 11.68a19.92 19.92 0 0 1-15.44-5.04 54.16 54.16 0 0 1-15.12-40.8c0-13.92 3.28-27.76 4.72-41.68a20.32 20.32 0 0 0-1.12-10.08c-5.44-12.16-11.28-24-17.36-35.92a276 276 0 0 0-17.84-32.8c-10.72-15.52-13.2-24-6.4-33.12s17.84-11.12 33.44-2.24c16.96 9.76 35.6 12.8 53.12 19.6 43.04 16.72 73.04 48.56 93.2 89.84q4.08 8.48 8 17.28c9.76 24 20.88 46 48.8 56a91.28 91.28 0 0 1 43.44 38.48zM726.24 587.92l22.24 19.36-1.92 3.6c-13.04 0-27.04 5.44-38.24-7.2a30.96 30.96 0 0 0-27.76-10.24c-12.24 0.8-24.56 0.48-36.8 0-19.76-0.56-37.84-10.64-35.76-35.52 1.2-16 0-32.72 0-49.12 0-21.2 6.32-32 27.12-33.76a443.84 443.84 0 0 1 80 1.12c17.04 1.52 24 13.28 24 30.56v50.24a32 32 0 0 1-12.88 30.96z m-19.28-14.32a96 96 0 0 0 3.76-16v-49.04A13.6 13.6 0 0 0 696 493.2c-14.08-0.48-28.24-0.48-42.32 0a13.92 13.92 0 0 0-15.12 16c0.56 16 0 32.72 0 49.04a13.76 13.76 0 0 0 13.04 15.2 169.36 169.36 0 0 0 20.16 0l2.4-4.08-19.92-13.44c22.8-4.88 39.2-2.56 52.72 17.68zM338.32 629.04v-19.36h70.56a40 40 0 0 0 15.2-2.24c3.2-1.44 5.12-5.92 8-9.04-3.12-1.6-6.16-4.48-9.44-4.64-19.2-1.12-38.56-0.48-57.68-2.64-21.2-2.4-29.12-13.44-28.8-34.96v-37.92c0-6.64 2.08-8.96 8.96-9.2 21.12-0.48 21.12-0.8 21.12 20.72v33.44a9.6 9.6 0 0 0 10.96 10.88h46.88c6.56 0 8-2.88 8-8.8 0-16 0.48-31.28 0-46.88-0.8-13.44 7.92-11.04 15.92-11.36s14.48 0 14.16 11.44c-0.72 24 0 48 0 71.36s-8.72 37.12-32.88 38.72c-29.84 2-60 0.48-90.96 0.48zM549.44 473.44h35.68c8 0 11.52 1.12 11.44 10.16s-4.96 9.76-12 9.68H523.2c-12.64 0-16 3.2-16 14.24s3.12 14.96 16 15.44 28.16 1.04 42.16 2.16c20 1.6 28.8 11.52 28.8 31.44 0 25.84-10.96 36.96-36.96 37.12h-70.32c-8 0-10.32-2.96-10.32-10.48s3.04-9.6 10.08-9.44q29.52 0.48 59.2 0c15.28 0 19.76-4.8 19.76-17.68 0-9.92-4.96-13.84-14.4-14.08a451.2 451.2 0 0 1-45.44-2.32c-22.72-3.12-29.28-13.92-27.28-40.88 1.12-14.16 15.2-25.12 32.96-25.44 12.64-0.08 25.36 0.08 38 0.08zM751.04 473.76h27.92c0 4.08 0.64 8 0.64 11.92v64.72c0 16 1.6 22.64 24 23.44 18.24 0.64 36.48 0 54.64 0 6.88 0 11.28 0.8 11.12 9.44s-2.64 10.64-10.48 10.4c-26.32-1.04-52.64-0.64-78.88-2.64-19.68-1.52-28.64-13.2-28.64-32.72V473.76z" fill="#FFFFFF" p-id="2724"></path><path d="M900.16 577.44l9.28-2.64L912 592l-23.04 1.2-2.48-12.24h-2.4l-2.88 12.24-2.4 0.56-6.8-20.4 28.4 2.72z" fill="#4D4D4D" p-id="2725"></path><path d="M682.8 273.2c4.8 2.64 10.96 4.32 13.92 8 1.84 2.48-1.04 8.56-1.76 13.04h-3.44L680 276.64z" fill="#FFFFFF" p-id="2726"></path><path d="M706.96 573.6c-13.52-20.24-29.92-22.56-52.48-17.2l19.92 13.44-2.4 4.08a169.36 169.36 0 0 1-20.16 0 13.76 13.76 0 0 1-13.04-15.2c0-16 0.48-32.72 0-49.04a13.92 13.92 0 0 1 15.12-16c14.08-0.48 28.24-0.48 42.32 0a13.6 13.6 0 0 1 14.8 15.52c-0.4 16 0 32.64 0 49.04a96 96 0 0 1-4.08 15.36z" fill="#4D4D4D" p-id="2727"></path></svg>