<?xml version="1.0" standalone="no"?><!DOCTYPE svg PUBLIC "-//W3C//DTD SVG 1.1//EN" "http://www.w3.org/Graphics/SVG/1.1/DTD/svg11.dtd"><svg t="1640451435929" class="icon" viewBox="0 0 1024 1024" version="1.1" xmlns="http://www.w3.org/2000/svg" p-id="3091" xmlns:xlink="http://www.w3.org/1999/xlink" width="200" height="200"><defs><style type="text/css"></style></defs><path d="M0 0m320 0l384 0q320 0 320 320l0 384q0 320-320 320l-384 0q-320 0-320-320l0-384q0-320 320-320Z" fill="#4D4D4D" p-id="3092"></path><path d="M149.68 568a394.72 394.72 0 0 1-42.56-2.4 53.92 53.92 0 0 1-43.84-58.96 54.96 54.96 0 0 1 52.8-49.36h65.04a55.04 55.04 0 0 1 2 110c-11.12 0.48-22.32 0-33.44 0z m0-21.36h32a34.72 34.72 0 0 0 33.76-33.92 33.84 33.84 0 0 0-32-34.64c-22.24-0.8-44.56-0.8-66.8 0a33.84 33.84 0 0 0-32 34.56 34.72 34.72 0 0 0 33.68 34.08c10.56 0.16 21.04-0.08 31.6-0.08zM803.84 522.48a32 32 0 0 0 32 24h74.24c-2.96 14.88-9.52 20.72-23.28 20.56a594 594 0 0 1-62.08-1.68 53.44 53.44 0 0 1-45.28-57.76 54.96 54.96 0 0 1 53.68-50.56h75.36c-3.44 14.96-9.52 20.08-23.52 20.08h-47.36a34.48 34.48 0 0 0-32 18.32 17.84 17.84 0 0 0-1.28 3.44 14.24 14.24 0 0 0 0.48 2.64h98.08c-3.68 16-9.6 20.72-24.48 20.72zM331.84 532.64l38.48 32c-15.6 2.56-29.36 4.88-41.68-8-14.96-15.44-32-28.72-50.08-44.32a77.04 77.04 0 0 1 8-1.12h49.28a17.2 17.2 0 0 0 18.72-16.48 16.96 16.96 0 0 0-17.92-17.28h-61.36c-5.92 0-7.12 2.72-7.12 8v81.36H248V457.12h88c24 0 40 14.56 40.8 36.16s-15.12 37.52-39.6 38.72zM430.24 528h54.64l-28.48-46c-2.24 3.2-4.08 5.52-5.6 8-13.92 22-28.32 43.6-41.44 66a19.04 19.04 0 0 1-21.44 11.44 80.72 80.72 0 0 0-11.04 0c2-3.68 3.2-6.32 4.72-8.72q28.96-45.52 58.4-90.88c10.16-16 22.8-16 33.12 0q28.56 44.56 57.04 89.2c1.76 2.72 3.36 5.6 6 10a99.2 99.2 0 0 1-22.72-0.48c-3.84-0.96-7.12-6.32-9.28-10.4a13.6 13.6 0 0 0-14.72-8c-9.84 0.56-20-1.04-29.68 0-16.4 2.64-24.32-5.36-29.52-20.16zM655.36 546.72c-5.36 14.88-12.48 22.72-28.4 20.96s-30.88 0-46.4 0a55.04 55.04 0 1 1 0.4-110.08h64c2.72 0 5.36 0 8 0.4-6 17.44-9.36 19.92-26.24 19.92h-45.44a34.56 34.56 0 1 0 0.56 69.04h62.16zM665.44 457.68h21.12V546.4h96.96c-4.32 16.72-9.68 20.96-24.88 20.96h-77.12c-12.72 0-16-3.36-16-16-0.16-30.72-0.08-61.68-0.08-93.68zM918.48 469.68a12.48 12.48 0 0 1 24.88-1.04 12.48 12.48 0 1 1-24.88 1.04z" fill="#FFFFFF" p-id="3093"></path></svg>