<?xml version="1.0" standalone="no"?><!DOCTYPE svg PUBLIC "-//W3C//DTD SVG 1.1//EN" "http://www.w3.org/Graphics/SVG/1.1/DTD/svg11.dtd"><svg t="1640451951107" class="icon" viewBox="0 0 1024 1024" version="1.1" xmlns="http://www.w3.org/2000/svg" p-id="2760" xmlns:xlink="http://www.w3.org/1999/xlink" width="200" height="200"><defs><style type="text/css"></style></defs><path d="M616.73 200.53c-135.51 0-250.72 86.63-293.47 207.51h-17.79c-114.6 0-207.51 92.9-207.51 207.52 0 114.61 92.91 207.52 207.52 207.52 0.22 0 0.44-0.02 0.67-0.02h310.59C788.64 823.06 928 683.7 928 511.8S788.64 200.53 616.73 200.53z m0 553.35H305.47c-76.4 0-138.34-61.93-138.34-138.34S229.07 477.2 305.47 477.2h71.75c16.79-117.29 117.58-207.5 239.51-207.5 133.7 0 242.09 108.39 242.09 242.09S750.44 753.88 616.73 753.88z" fill="#040000" p-id="2761"></path><path d="M681.58 607.21c21.49 0 38.91-20.29 38.91-41.78 0-21.49-17.42-41.78-38.91-41.78h-6.64c-1.38 0-2.96-7.16-4.73-10.86l4.7-4.42c15.19-15.2 15.19-39.69 0-54.89-15.2-15.19-39.83-15.12-55.02 0.07l-6.34 4.74c-3.7-1.77 3.65-3.32-13.06-4.7v-6.64c0-21.49-20.29-38.91-41.78-38.91s-41.78 17.42-41.78 38.91v6.64c0 1.38-3.2 2.96-6.9 4.73l-2.44-4.7c-15.2-15.19-38.7-15.19-53.9 0-15.19 15.2-14.63 39.83 0.56 55.02l4.98 4.14c-1.77 3.7-3.07 10.86-4.45 10.86h-6.64c-21.49 0-38.91 20.29-38.91 41.78 0 21.49 17.42 41.78 38.91 41.78h6.64c1.38 0 2.96 5.4 4.73 9.1l-4.7 3.54c-15.19 15.2-15.19 39.25 0 54.45 15.2 15.19 39.83 14.9 55.02-0.29l0.18-4.85c3.7 1.77 6.9 3.21 6.9 4.59v6.64c0 21.49 20.29 38.91 41.78 38.91s41.78-17.42 41.78-38.91v-6.64c16.71-1.38 9.36-2.96 13.06-4.73l5.52 4.7c15.2 15.19 40.24 15.19 55.44 0 15.19-15.2 15.4-39.83 0.21-55.02l-4.6-2.38c1.77-3.7 3.46-9.1 4.84-9.1h6.64z m-65.9-33.08c-4.15 20.26-20.11 36.22-40.37 40.37-3.38 0.69-6.87 1.05-10.46 1.05s-7.08-0.36-10.46-1.05c-20.26-4.15-36.22-20.11-40.37-40.37-0.69-3.38-1.05-6.87-1.05-10.46 0-3.58 0.36-7.08 1.05-10.46 4.15-20.26 20.11-36.22 40.37-40.37 3.38-0.69 6.87-1.05 10.46-1.05s7.08 0.36 10.46 1.05c20.26 4.15 36.22 20.11 40.37 40.37 0.69 3.38 1.05 6.87 1.05 10.46 0 3.59-0.36 7.08-1.05 10.46z" fill="#040000" p-id="2762"></path></svg>