<?xml version="1.0" standalone="no"?><!DOCTYPE svg PUBLIC "-//W3C//DTD SVG 1.1//EN" "http://www.w3.org/Graphics/SVG/1.1/DTD/svg11.dtd"><svg t="1640451979640" class="icon" viewBox="0 0 1024 1024" version="1.1" xmlns="http://www.w3.org/2000/svg" p-id="3257" xmlns:xlink="http://www.w3.org/1999/xlink" width="200" height="200"><defs><style type="text/css"></style></defs><path d="M863.6 698.4h-212V385.2h64L592 260.8l-123.6 124.8H532v313.2h-50.8v-260.4h-148v260.4H226.4C101.6 698.4 0 596.8 0 472c0-124.8 101.6-226.4 226.4-226.4 14.4 0 29.2 1.2 43.2 4 51.2-114 164.4-187.6 290-187.6 174.4 0 316.8 141.6 318 315.6 82.8 6.8 146.8 75.6 146.8 159.6-0.4 89.2-72.4 161.2-160.8 161.2z m-199.2-12.8h199.2c81.2 0 147.6-66 147.6-147.6 0-79.2-62-144-140.8-147.2l-6-0.4v-6-2-1.6c0-168.4-136.8-305.2-305.2-305.2-122 0-232 72.4-280.4 184.4l-2 4.8-5.2-1.2c-14.8-3.2-30.4-4.8-45.6-4.8-117.6 0-213.2 95.6-213.2 213.2s95.6 213.6 213.6 213.6h94v-260.4h174v260.4h25.2V398h-81.6L592 242.8l154 155.6h-81.6v287.2z" fill="#4A555F" p-id="3258"></path><path d="M678.4 671.6V412H780l-188-189.6-186.8 188.8H306.4v260.4h-80c-110 0-199.2-89.6-199.2-199.2 0-110 89.6-199.2 199.2-199.2 14.4 0 28.8 1.6 42.4 4.4l16.4 3.6 6.8-15.6c46-106.8 151.2-176 267.2-176 160.4 0 291.2 130.4 291.2 291.2V404l19.6 0.8c71.6 3.2 127.2 61.6 127.2 133.2 0 73.6-60 133.6-133.6 133.6h-185.2z" fill="#E0E0E0" p-id="3259"></path><path d="M407.6 961.2l-184.8-186.4h97.6v-349.2h174v349.2H592l-184.4 186.4z m-154.4-173.6l154.4 156 154.4-156h-80v-349.2H333.2v349.2h-80z" fill="#4A555F" p-id="3260"></path><path d="M286.8 801.6h60.4v-349.2h120.4v349.2H528l-120.4 121.6z" fill="#FFD552" p-id="3261"></path><path d="M519.6 750.4V398h-81.6L592 242.8l154 155.6h-81.6v352.4l-144.8-0.4z m12.8-365.2v352.4h119.2V385.2h64L592 260.8l-123.6 124.8 64-0.4z" fill="#4A555F" p-id="3262"></path><path d="M546.4 371.2h-44L592 280.8l89.6 90.4h-44v352.4h-91.2z" fill="#F68F6F" p-id="3263"></path></svg>